<svg width="3935" height="2542" viewBox="0 0 3935 2542" fill="none" xmlns="http://www.w3.org/2000/svg">
<path d="M98.4234 1999.45C274.339 2350.99 280.936 2549.13 434.863 2521.44C558.004 2499.28 1566.59 2147.17 2044.49 1982.41M2044.49 1982.41L2297.37 2248.73C2332.56 2273.58 2423.26 2278.63 2539.26 2208.25C2721.77 2097.5 3396.85 2065.5 3669.62 2065.5C3887.84 2065.5 3894.36 2025.02 3918 1950.45M2044.49 1982.41C2088.47 1967.24 2143.45 2004.49 2165.44 2025.02C2323.76 2208.25 2345.75 2216.77 2510.67 2148.59C2608.1 2108.31 3031.82 2041.36 3238.52 2025.02C3491.4 2005.04 3855.98 2004.33 3788.26 1973.89C3574.96 1878.01 2803.13 1973.89 2510.67 2074.02C2336.2 2133.76 2246.8 2037.8 2220.41 1973.89C2338.27 1829.01 3053.81 1628.03 3396.85 1545.65C3611.47 1458.73 3665.22 1528.61 3669.62 1641.11C3674.02 1753.62 3669.62 1666.68 3698.21 1790.25C3728.71 1922.11 3663.65 1885.12 3601.35 1878.01C3396.85 1818.36 2888.89 1865.23 2673.39 1961.11C2473.55 2050.02 2365.54 1918.49 2532.66 1865.23C2798.73 1824.75 3238.52 1771.49 3491.4 1654.31C3744.28 1537.13 3368.26 1419.95 3238.52 1334.73C3134.73 1266.55 3038.42 1234.35 2928.47 1334.73C2349.71 1863.1 2257.79 1899.32 2238 1878.01C2496.75 1648.63 3048.54 1148.52 3238.52 1008.76C3428.51 868.993 3423.24 825.53 3396.85 821.269C3356.7 773.723 3321.64 755.59 3294.25 752.137M1989.52 1935.54C1652.35 2052.72 921.71 2309.66 696.538 2399.99C471.365 2490.33 391.617 2475.98 379.889 2457.52C211.303 2189.78 -12.5508 1652.57 21.4601 1647.92C223.763 1620.22 310.989 1586.13 384.287 1558.43C407.742 1549.2 414.192 1496.65 252.35 1360.29C312.454 1242.41 612.978 1041.99 1334.23 1183.46C1222.09 1083.33 816.6 964.867 179.784 1292.12L742.716 1515.82C792.559 1544.23 927.867 1584 1070.36 1515.82C1248.47 1430.6 1934.55 1217.55 2044.49 1722.49C1934.55 1462.56 1202.3 1204.77 1090.15 1897.19C1270.46 1769.36 1604.7 1183.46 2106.07 1918.49C2126.59 1798.47 2121.9 1535.85 1938.94 1445.52C1755.99 1355.18 1547.53 1247.38 1466.17 1204.77C1436.85 1197.66 1385.32 1146.7 1356.22 1008.76C1252.87 518.734 1138.53 390.902 1017.58 209.806C977.653 150.014 897.522 69.1909 1138.53 145.89C1379.53 222.589 1625.96 326.985 1719.05 369.596C1831.2 439.904 2112.66 665.741 2165.44 1918.49C2239.47 1630.16 2259.99 929.927 1894.97 407.946C1874.44 381.116 1803.93 323.953 1686.07 309.941C1568.2 295.93 1549 194.736 1554.13 145.89C1554.13 18.058 1554.13 -18.1611 1754.23 56.4076L2479.89 277.983C2527.53 286.505 2598.63 277.983 2572.24 459.079M1989.52 1935.54C1925.02 1864.52 1780.99 1741.5 1747.64 1722.49C1710.25 1701.18 1617.9 1641.52 1466.17 1769.36C1344.79 1871.62 1266.07 1922.76 1241.88 1935.54C1202.3 1980.99 1070.8 2036.95 861.459 1897.19C652.119 1757.43 532.35 1658.57 498.632 1626.61C461.25 1576.19 424.308 1500.06 575.595 1598.91C726.883 1697.77 899.574 1838.95 967.009 1897.19C1008.79 1935.54 1113.46 1972.61 1233.08 1865.23C1382.61 1731.01 1615.7 1486 1802.61 1664.96C1952.14 1808.13 1971.93 1826.88 1963.13 1818.36C1999.78 1847.72 2056.37 1912.26 1989.52 1935.54ZM2572.24 459.079C2548.72 620.543 2550.25 957.624 2297.37 1598.91C2407.32 1456.17 2662.4 1090.57 2803.13 770.137C2847.02 680.889 2922.15 553.61 3040.96 545.797M2572.24 459.079L3040.96 545.797M3040.96 545.797C3082.87 543.04 3130.22 555.15 3183.55 589.041L3055.9 752.137M3294.25 752.137C3267.64 748.783 3248.28 759.287 3238.52 770.137C3053.81 976.372 2532.66 1502.33 2279.78 1743.79L3055.9 752.137M3294.25 752.137H3055.9" stroke="#535353" stroke-width="35"/>
</svg>
